<?xml version="1.0" encoding="UTF-8" standalone="no"?>
<!--part of the rodentia icon theme by sixsixfive released under CC0 (https://creativecommons.org/publicdomain/zero/1.0/) on openclipart-->
<svg xmlns="http://www.w3.org/2000/svg" xmlns:xlink="http://www.w3.org/1999/xlink" viewBox="0 0 48 48">
 <defs id="0">
  <linearGradient id="7">
   <stop id="a" stop-color="#2e3436"/>
   <stop id="b" offset="1" stop-color="#2e3436" stop-opacity="0"/>
  </linearGradient>
  <linearGradient id="8">
   <stop id="c" stop-color="#fff"/>
   <stop id="d" offset="1" stop-color="#fff" stop-opacity="0"/>
  </linearGradient>
  <linearGradient id="9">
   <stop id="e" stop-color="#fff" stop-opacity="0.8"/>
   <stop id="f" offset="1" stop-color="#fff" stop-opacity="0"/>
  </linearGradient>
  <linearGradient id="A">
   <stop id="g" stop-color="#2e3436"/>
   <stop id="h" offset="1" stop-color="#fff"/>
  </linearGradient>
  <linearGradient id="B">
   <stop id="i" stop-color="#fcaf3e"/>
   <stop id="j" offset="1" stop-color="#f57900"/>
  </linearGradient>
  <linearGradient id="C">
   <stop id="k" stop-color="#888a85"/>
   <stop id="l" offset="1" stop-color="#555753"/>
  </linearGradient>
  <linearGradient id="D">
   <stop id="m" stop-color="#d3d7cf"/>
   <stop id="n" offset="1" stop-color="#888a85"/>
  </linearGradient>
  <linearGradient id="E">
   <stop id="o" stop-color="#2e3436"/>
   <stop id="p" offset="0.5" stop-color="#2e3436"/>
   <stop id="q" offset="1" stop-color="#555753"/>
  </linearGradient>
  <radialGradient cx="21.995" cy="45.55" r="20.799" id="F" xlink:href="#7" gradientUnits="userSpaceOnUse" gradientTransform="matrix(1,0,0,0.1005747,0,40.968382)"/>
  <radialGradient cx="-2.616" cy="10.808" r="20.625" id="G" xlink:href="#C" gradientUnits="userSpaceOnUse" gradientTransform="matrix(-0.3995038,1.5759394,-1.5431411,-0.3911895,33.852572,-0.405071)"/>
  <linearGradient y1="3.313" x2="0" y2="44.688" id="H" xlink:href="#9" gradientUnits="userSpaceOnUse"/>
  <radialGradient cx="28.952" cy="35.11" r="16.776" id="I" xlink:href="#C" gradientUnits="userSpaceOnUse" gradientTransform="matrix(1,0,0,0.9498816,0,1.3162408)"/>
  <radialGradient cx="24.326" cy="14" r="17.653" id="J" xlink:href="#B" gradientUnits="userSpaceOnUse" gradientTransform="matrix(0.5081215,-0.6915877,0.7497718,0.4956001,-1.1871056,27.437038)"/>
  <linearGradient y1="10.663" x2="0" y2="41.868" id="K" xlink:href="#9" gradientUnits="userSpaceOnUse"/>
  <linearGradient y1="10.59" x2="0" y2="40.35" id="L" xlink:href="#9" gradientUnits="userSpaceOnUse"/>
  <linearGradient x1="17.761" y1="10.119" x2="24.753" y2="29.86" id="M" xlink:href="#8" gradientUnits="userSpaceOnUse"/>
  <linearGradient x1="3.375" y1="-22.478" x2="24" y2="32.791" id="N" xlink:href="#8" gradientUnits="userSpaceOnUse"/>
  <linearGradient x1="8.223" y1="27.873" x2="6.303" y2="29.747" id="O" xlink:href="#A" gradientUnits="userSpaceOnUse"/>
  <radialGradient cx="8.297" cy="29.672" r="0.891" id="P" xlink:href="#D" gradientUnits="userSpaceOnUse" gradientTransform="matrix(1,0,0,0.8245614,0,5.2055921)"/>
  <linearGradient x1="8.813" x2="9.344" id="Q" xlink:href="#E" gradientUnits="userSpaceOnUse" gradientTransform="matrix(0.679289,0.7340578,-0.727172,0.672917,21.89449,-18.210217)"/>
  <linearGradient x1="10.149" y1="30.372" x2="7.521" y2="31.34" id="R" xlink:href="#A" gradientUnits="userSpaceOnUse"/>
  <linearGradient x1="8.379" y1="31.483" x2="10.299" y2="29.608" id="S" xlink:href="#A" gradientUnits="userSpaceOnUse"/>
  <linearGradient x1="7.704" y1="27.953" x2="10.213" y2="29.15" id="T" xlink:href="#A" gradientUnits="userSpaceOnUse"/>
  <linearGradient y1="11.314" x2="0" y2="41.22" id="U" xlink:href="#9" gradientUnits="userSpaceOnUse"/>
  <radialGradient cx="27.829" cy="51.1" r="26.2" id="V" xlink:href="#7" gradientUnits="userSpaceOnUse" gradientTransform="matrix(1,0,0,0.1971831,0,41.02416)"/>
  <linearGradient y1="21.09" x2="0" y2="46.906" id="W" xlink:href="#9" gradientUnits="userSpaceOnUse"/>
  <linearGradient x1="20.594" y1="6.614" x2="27.691" y2="40.796" id="X" xlink:href="#8" gradientUnits="userSpaceOnUse" gradientTransform="translate(0,-0.2479995)"/>
 </defs>
 <g transform="translate(1.7305371e-8,-1.1250001)" id="1">
  <path d="m 42.79389,45.549511 a 20.799265,2.0918801 0 1 1 -41.5985298,0 20.799265,2.0918801 0 1 1 41.5985298,0 z" transform="matrix(1.0833333,0,0,1.3428571,0.1724902,-15.97558)" id="Y" opacity="0.8" fill="url(#F)"/>
  <g id="Z">
   <path d="m 25.09375,9.09375 c -9.891696,0 -18.03125,7.664958 -18.03125,17.1875 0,9.522661 8.14323,17.156248 18.03125,17.15625 9.888139,0 18.000002,-7.637434 18,-17.15625 0,-9.518697 -8.108185,-17.1875 -18,-17.1875 z" transform="matrix(1.1885239,0,0,1.2527684,-5.819115,-8.5069835)" id="r" fill="#2e3436"/>
   <path d="M 12.121652,2.25 C 6.6792375,2.2500001 2.2500004,6.7320956 2.25,12.251116 c 0,2.384668 0.8244044,4.560541 2.2008929,6.279018 -0.5460881,1.855025 -0.8415179,3.823949 -0.8415179,5.858259 0,1.826408 0.2685204,3.590368 0.7120536,5.27567 C 3.0357467,31.352856 2.25,33.451925 2.25,35.748884 2.25,41.267903 6.6792335,45.75 12.121652,45.75 c 2.112979,0 4.058684,-0.695819 5.664062,-1.844866 1.715603,0.541079 3.528185,0.851627 5.405134,0.90625 0.343632,0.01769 0.687774,0.03237 1.035714,0.03237 0.194835,-0.0044 0.38915,-0.02241 0.58259,-0.03237 1.876949,-0.05462 3.689531,-0.365171 5.405134,-0.90625 1.605378,1.149047 3.551083,1.844866 5.664062,1.844866 5.442419,0 9.871652,-4.482097 9.871652,-10.001116 10e-7,-2.296959 -0.785747,-4.396028 -2.071429,-6.084821 0.443533,-1.685302 0.712054,-3.449262 0.712054,-5.27567 0,-2.03431 -0.29543,-4.003234 -0.841518,-5.858259 C 44.925596,16.811657 45.750001,14.635784 45.75,12.251116 45.75,6.7320956 41.320762,2.2500001 35.878348,2.25 c -2.444634,0 -4.685274,0.8990991 -6.408482,2.3950893 -1.353433,-0.3694148 -2.757774,-0.6050842 -4.207589,-0.6796875 -0.01073,-5.52e-4 -0.02163,5.35e-4 -0.03237,0 -0.478495,-0.035849 -0.968916,-0.032366 -1.456474,-0.032366 -0.34794,0 -0.692082,0.014684 -1.035714,0.032366 C 21.287904,4.0400048 19.883563,4.2756745 18.53013,4.6450893 16.806926,3.1490991 14.566285,2.25 12.121652,2.25 z" id="s" fill="#2e3436" stroke="#83acf8" stroke-width="0"/>
   <path d="m 12.125,3.375 c -4.8284099,10e-8 -8.7499996,3.954922 -8.75,8.875 0,2.131045 0.7153078,4.067904 1.9375,5.59375 a 1.1187284,1.1187284 0 0 1 0.1875,1 c -0.5138122,1.745386 -0.75,3.594602 -0.75,5.53125 0,1.726793 0.2360713,3.403439 0.65625,5 A 1.1187284,1.1187284 0 0 1 5.1875,30.34375 C 4.0420315,31.848368 3.375,33.705247 3.375,35.75 c 0,4.920079 3.9215852,8.875 8.75,8.875 1.867794,0 3.567555,-0.599729 5,-1.625 a 1.1187284,1.1187284 0 0 1 1,-0.15625 c 1.617016,0.509988 3.319085,0.792104 5.09375,0.84375 a 1.1187284,1.1187284 0 0 1 0.03125,0 c 0.324334,0.0167 0.628826,0.03048 0.9375,0.03125 0.01028,2.6e-5 0.02097,0 0.03125,0 0.14459,-0.0044 0.325555,-0.02066 0.53125,-0.03125 a 1.1187284,1.1187284 0 0 1 0.03125,0 c 1.774662,-0.05164 3.476733,-0.333764 5.09375,-0.84375 a 1.1187284,1.1187284 0 0 1 1,0.15625 c 1.432443,1.025271 3.132205,1.625 5,1.625 4.828414,0 8.75,-3.954923 8.75,-8.875 10e-7,-2.04475 -0.667032,-3.901634 -1.8125,-5.40625 A 1.1187284,1.1187284 0 0 1 42.59375,29.375 c 0.420179,-1.596561 0.65625,-3.273206 0.65625,-5 0,-1.936648 -0.236188,-3.785864 -0.75,-5.53125 a 1.1187284,1.1187284 0 0 1 0.1875,-1 c 1.222193,-1.525846 1.937501,-3.462706 1.9375,-5.59375 0,-4.9200776 -3.92159,-8.8749999 -8.75,-8.875 -2.166957,0 -4.156791,0.7961265 -5.6875,2.125 a 1.1187284,1.1187284 0 0 1 -1,0.25 c -1.282753,-0.3501227 -2.637612,-0.5861455 -4,-0.65625 0.09941,0.00512 0.08853,0.00597 -0.03125,0 a 1.1187284,1.1187284 0 0 1 -0.03125,0 C 24.708201,5.062523 24.275843,5.0625 23.78125,5.0625 c -0.318861,1e-7 -0.633572,0.014003 -0.96875,0.03125 -1.362387,0.070104 -2.717247,0.3061272 -4,0.65625 a 1.1187284,1.1187284 0 0 1 -1,-0.25 C 16.281791,4.1711269 14.291955,3.375 12.125,3.375 z" id="t" fill="url(#G)"/>
   <path d="m 12.125,3.8125 c -4.592657,10e-8 -8.3124997,3.7473918 -8.3125,8.4375 0,2.033664 0.6808014,3.860617 1.84375,5.3125 a 1.5482751,1.5482751 0 0 1 0.28125,1.40625 c -0.5014195,1.703289 -0.75,3.507101 -0.75,5.40625 0,1.688545 0.2137885,3.312511 0.625,4.875 A 1.5482751,1.5482751 0 0 1 5.53125,30.59375 C 4.4396179,32.027652 3.8125,33.802084 3.8125,35.75 c 0,4.69011 3.7198378,8.4375 8.3125,8.4375 1.773653,0 3.383954,-0.553505 4.75,-1.53125 A 1.5482751,1.5482751 0 0 1 18.25,42.4375 c 1.579162,0.498049 3.233358,0.761997 4.96875,0.8125 a 1.5482751,1.5482751 0 0 1 0.0625,0.03125 c 0.320807,0.01652 0.608486,-7.73e-4 0.90625,0 0.01027,2.7e-5 0.02099,0 0.03125,0 0.128963,-0.004 0.286266,0.011 0.5,0 A 1.5482751,1.5482751 0 0 1 24.78125,43.25 c 1.735388,-0.0505 3.389586,-0.314452 4.96875,-0.8125 a 1.5482751,1.5482751 0 0 1 1.375,0.21875 c 1.366043,0.977746 2.976346,1.53125 4.75,1.53125 4.592661,0 8.3125,-3.747393 8.3125,-8.4375 10e-7,-1.947912 -0.627119,-3.72235 -1.71875,-5.15625 A 1.5482751,1.5482751 0 0 1 42.1875,29.25 c 0.411212,-1.562488 0.625,-3.186454 0.625,-4.875 0,-1.899149 -0.248581,-3.702961 -0.75,-5.40625 a 1.5482751,1.5482751 0 0 1 0.28125,-1.40625 c 1.162949,-1.451883 1.843751,-3.278837 1.84375,-5.3125 0,-4.6901078 -3.719843,-8.4374999 -8.3125,-8.4375 -2.06034,0 -3.949453,0.7352926 -5.40625,2 A 1.5482751,1.5482751 0 0 1 29.0625,6.15625 C 27.806885,5.8135346 26.485069,5.5683772 25.15625,5.5 a 1.5482751,1.5482751 0 0 1 -0.0625,0 c -0.39311,-0.029452 -0.815206,0 -1.3125,0 -0.307696,1e-7 -0.605568,-0.01708 -0.9375,0 -1.328818,0.068377 -2.650636,0.3135345 -3.90625,0.65625 A 1.5482751,1.5482751 0 0 1 17.53125,5.8125 c -1.456797,-1.2647069 -3.345912,-2 -5.40625,-2 z" id="u" opacity="0.8" fill="none" stroke="url(#H)"/>
   <path d="m 25.09375,9.9375 c -9.449405,0 -17.1875,7.310931 -17.1875,16.34375 0,9.032819 7.739968,16.312498 17.1875,16.3125 9.447532,0 17.156252,-7.281655 17.15625,-16.3125 C 42.25,17.250405 34.543155,9.9375 25.09375,9.9375 z" transform="matrix(1.1885239,0,0,1.2527684,-5.819115,-8.5069835)" id="v" fill="#a64a00"/>
   <path d="m 24.25,10.78125 c -8.629066,0.415798 -15.5,7.213551 -15.5,15.5 0,8.553754 7.325226,15.468748 16.34375,15.46875 9.018524,0 16.312502,-6.914932 16.3125,-15.46875 0,-8.553818 -7.294037,-15.5 -16.3125,-15.5 -0.281827,0 -0.565393,-0.01341 -0.84375,0 z" transform="matrix(1.1885239,0,0,1.2527684,-5.819115,-8.5069835)" id="w" fill="#f57900"/>
   <path d="m 24.25,10.78125 c -8.629066,0.415798 -15.5,7.213551 -15.5,15.5 0,8.553754 7.325226,15.468748 16.34375,15.46875 9.018524,0 16.312502,-6.914932 16.3125,-15.46875 0,-8.553818 -7.294037,-15.5 -16.3125,-15.5 -0.281827,0 -0.565393,-0.01341 -0.84375,0 z" transform="matrix(1.0192881,0,0,1.0743847,-1.5749985,-3.8221558)" id="x" fill="url(#I)" stroke="#2e3436" stroke-width="0.895"/>
   <path d="m 24.25,10.78125 c -8.629066,0.415798 -15.5,7.213551 -15.5,15.5 0,8.553754 7.325226,15.468748 16.34375,15.46875 9.018524,0 16.312502,-6.914932 16.3125,-15.46875 0,-8.553818 -7.294037,-15.5 -16.3125,-15.5 -0.281827,0 -0.565393,-0.01341 -0.84375,0 z" transform="matrix(0.3674641,0,0,0.3874128,14.771525,14.219543)" id="y" fill="url(#J)" stroke="#a64a00" stroke-width="2.65"/>
   <path d="m 25.09375,11.0625 c -8.876249,0 -16.0625,6.823092 -16.0625,15.21875 0,8.395658 7.185552,15.187498 16.0625,15.1875 8.876948,0 16.031252,-6.791104 16.03125,-15.1875 0,-8.396396 -7.155001,-15.21875 -16.03125,-15.21875 z" transform="matrix(1.1885239,0,0,1.2527684,-5.819115,-8.5069835)" id="z" opacity="0.8" fill="none" stroke="url(#K)" stroke-width="0.82"/>
   <path d="m 24.375,13.4375 c -7.298556,0.351686 -12.9375,6.034569 -12.9375,12.84375 0,7.028029 6.003781,12.781248 13.65625,12.78125 7.652481,0 13.625002,-5.746637 13.625,-12.78125 0,-7.034601 -5.978763,-12.8125 -13.625,-12.8125 -0.366619,0 -0.613096,-0.03634 -0.71875,-0.03125 z" transform="matrix(0.3674641,0,0,0.3874128,14.771525,14.219543)" id="10" opacity="0.8" fill="none" stroke="url(#L)" stroke-width="2.65"/>
   <path d="m 23.71875,18.96875 c -2.89929,0.147289 -5.1875,2.537394 -5.1875,5.4375 0,1.227712 0.402815,2.340347 1.09375,3.25 3.227495,-1.458145 6.512473,-2.858927 9.75,-4.15625 -0.42246,-2.575139 -2.647189,-4.53125 -5.375,-4.53125 -0.119736,1e-6 -0.214922,-0.0034 -0.28125,0 z" id="11" opacity="0.6" fill="url(#M)"/>
   <path d="m 12.125,3.375 c -4.8284099,10e-8 -8.7499996,3.954922 -8.75,8.875 0,1.864664 0.5443123,3.57794 1.5,5 -0.8335572,2.229277 -1.3125,4.635496 -1.3125,7.15625 0,2.335455 0.4356099,4.568758 1.15625,6.65625 C 3.8702498,32.428368 3.375,34.011454 3.375,35.75 c 0,0.341334 0.025758,0.668955 0.0625,1 1.8970702,-1.226318 3.8791126,-2.41258 5.90625,-3.59375 -1.5321828,-2.560922 -2.4375,-5.541524 -2.4375,-8.75 0,-9.168635 7.196127,-16.6667373 16.21875,-17.125 0.313207,-0.015908 0.602211,0 0.875,0 7.43467,0 13.723164,4.780782 16.0625,11.4375 1.03302,-0.387412 2.082195,-0.75037 3.125,-1.125 -0.03635,-0.102535 -0.05597,-0.210683 -0.09375,-0.3125 0.970732,-1.429068 1.531251,-3.150805 1.53125,-5.03125 0,-4.9200776 -3.92159,-8.8749999 -8.75,-8.875 -1.936302,0 -3.735241,0.6353322 -5.1875,1.71875 C 28.592583,4.3626247 26.338499,3.9375 24,3.9375 c -2.338499,0 -4.590032,0.4252721 -6.6875,1.15625 C 15.860241,4.0103324 14.0613,3.375 12.125,3.375 z" id="12" opacity="0.6" fill="url(#N)"/>
   <g transform="matrix(-1,0,0,1.0005795,46.950717,0.7441553)" id="13">
    <path d="m 9.7220567,29.677664 a 1.420916,1.2713459 0 1 1 -2.8418319,0 1.420916,1.2713459 0 1 1 2.8418319,0 z" transform="matrix(0.7361039,-0.6811825,0.7541801,0.814987,-20.992805,-11.03232)" id="18" fill="url(#O)"/>
    <path d="m 8.3125,28.9375 c -0.5173003,0 -0.9062499,0.384633 -0.90625,0.75 0,0.365367 0.3745491,0.718751 0.90625,0.71875 0.5317017,0 0.8750002,-0.337288 0.875,-0.71875 0,-0.381463 -0.3577006,-0.750001 -0.875,-0.75 z" transform="matrix(0.6811825,0.7361039,-0.814987,0.7541801,26.038982,-21.002972)" id="19" fill="url(#P)"/>
    <path d="M 8.0972688,6.9493104 C 8.0246794,6.8708684 7.9481153,6.8317031 7.8607705,6.7849139 L 6.7472884,7.8153181 c 0.040892,0.080674 0.078136,0.1756057 0.1456017,0.2485111 0.060365,0.065231 0.1483592,0.097567 0.2152705,0.1414571 L 8.2443669,7.1538535 C 8.2065439,7.0773284 8.1606963,7.0178518 8.0972688,6.9493104 z" id="1A" fill="url(#Q)"/>
   </g>
   <g transform="matrix(0.9061694,-0.4225537,0.4228632,0.906833,-1.419244,4.6164071)" id="14">
    <path d="m 9.7220567,29.677664 a 1.420916,1.2713459 0 1 1 -2.8418319,0 1.420916,1.2713459 0 1 1 2.8418319,0 z" transform="matrix(0.7361039,-0.6811825,0.7541801,0.814987,-20.992805,-11.03232)" id="1B" fill="url(#R)"/>
    <path d="m 8.3125,28.9375 c -0.5173003,0 -0.9062499,0.384633 -0.90625,0.75 0,0.365367 0.3745491,0.718751 0.90625,0.71875 0.5317017,0 0.8750002,-0.337288 0.875,-0.71875 0,-0.381463 -0.3577006,-0.750001 -0.875,-0.75 z" transform="matrix(0.6811825,0.7361039,-0.814987,0.7541801,26.038982,-21.002972)" id="1C" fill="url(#P)"/>
    <path d="M 8.0972688,6.9493104 C 8.0246794,6.8708684 7.9481153,6.8317031 7.8607705,6.7849139 L 6.7472884,7.8153181 c 0.040892,0.080674 0.078136,0.1756057 0.1456017,0.2485111 0.060365,0.065231 0.1483592,0.097567 0.2152705,0.1414571 L 8.2443669,7.1538535 C 8.2065439,7.0773284 8.1606963,7.0178518 8.0972688,6.9493104 z" id="1D" fill="url(#Q)"/>
   </g>
   <g transform="matrix(-1,0,0,-1.0005795,16.048717,47.955845)" id="15">
    <path d="m 9.7220567,29.677664 a 1.420916,1.2713459 0 1 1 -2.8418319,0 1.420916,1.2713459 0 1 1 2.8418319,0 z" transform="matrix(0.7361039,-0.6811825,0.7541801,0.814987,-20.992805,-11.03232)" id="1E" fill="url(#S)"/>
    <path d="m 8.3125,28.9375 c -0.5173003,0 -0.9062499,0.384633 -0.90625,0.75 0,0.365367 0.3745491,0.718751 0.90625,0.71875 0.5317017,0 0.8750002,-0.337288 0.875,-0.71875 0,-0.381463 -0.3577006,-0.750001 -0.875,-0.75 z" transform="matrix(0.6811825,0.7361039,-0.814987,0.7541801,26.038982,-21.002972)" id="1F" fill="url(#P)"/>
    <path d="M 8.0972688,6.9493104 C 8.0246794,6.8708684 7.9481153,6.8317031 7.8607705,6.7849139 L 6.7472884,7.8153181 c 0.040892,0.080674 0.078136,0.1756057 0.1456017,0.2485111 0.060365,0.065231 0.1483592,0.097567 0.2152705,0.1414571 L 8.2443669,7.1538535 C 8.2065439,7.0773284 8.1606963,7.0178518 8.0972688,6.9493104 z" id="1G" fill="url(#Q)"/>
   </g>
   <g transform="matrix(-0.258819,0.9659258,-0.9664856,-0.258969,48.6405,35.149323)" id="16">
    <path d="m 9.7220567,29.677664 a 1.420916,1.2713459 0 1 1 -2.8418319,0 1.420916,1.2713459 0 1 1 2.8418319,0 z" transform="matrix(0.7361039,-0.6811825,0.7541801,0.814987,-20.992805,-11.03232)" id="1H" fill="url(#T)"/>
    <path d="m 8.3125,28.9375 c -0.5173003,0 -0.9062499,0.384633 -0.90625,0.75 0,0.365367 0.3745491,0.718751 0.90625,0.71875 0.5317017,0 0.8750002,-0.337288 0.875,-0.71875 0,-0.381463 -0.3577006,-0.750001 -0.875,-0.75 z" transform="matrix(0.6811825,0.7361039,-0.814987,0.7541801,26.038982,-21.002972)" id="1I" fill="url(#P)"/>
    <path d="M 8.0972688,6.9493104 C 8.0246794,6.8708684 7.9481153,6.8317031 7.8607705,6.7849139 L 6.7472884,7.8153181 c 0.040892,0.080674 0.078136,0.1756057 0.1456017,0.2485111 0.060365,0.065231 0.1483592,0.097567 0.2152705,0.1414571 L 8.2443669,7.1538535 C 8.2065439,7.0773284 8.1606963,7.0178518 8.0972688,6.9493104 z" id="1J" fill="url(#Q)"/>
   </g>
   <path d="m 25.09375,11.75 c -8.522793,0 -15.375,6.528517 -15.375,14.53125 0,8.002733 6.84992,14.499998 15.375,14.5 8.525079,0 15.343752,-6.494857 15.34375,-14.5 C 40.4375,18.276107 33.616543,11.75 25.09375,11.75 z" transform="matrix(1.0192881,0,0,1.0743847,-1.5749985,-3.8221558)" id="17" opacity="0.8" fill="none" stroke="url(#U)" stroke-width="0.895"/>
  </g>
 </g>
 <path d="m 54.033239,51.100269 a 26.204645,5.1671133 0 1 1 -52.4092899,0 26.204645,5.1671133 0 1 1 52.4092899,0 z" transform="matrix(0.9158682,0,0,0.4730111,-1.4873245,21.384903)" id="2" opacity="0.8" fill="url(#V)"/>
 <path d="m 44.625,18.09375 c -0.285687,0.04385 -0.568285,0.127181 -0.8125,0.28125 l 0,0.03125 c -0.0083,0.0053 -0.02302,-0.0054 -0.03125,0 L 2,43.375 a 1.0833563,1.0833563 0 0 0 -0.03125,0.03125 c -0.7486068,0.488463 -1.12947363,1.414359 -0.875,2.3125 0.2544736,0.89814 1.0403848,1.538418 1.96875,1.5625 a 1.0833563,1.0833563 0 0 0 0.03125,0 l 41.8125,0 c 1.141612,0.01214 2.102019,-0.921057 2.125,-2.0625 a 1.0833563,1.0833563 0 0 0 0,-0.03125 l 0,-24.96875 c 1.93e-4,-0.01 -5.1e-5,-0.0213 0,-0.03125 0.0031,-0.608522 -0.271813,-1.19513 -0.71875,-1.59375 -0.454248,-0.405143 -1.08021,-0.581555 -1.6875,-0.5 z" transform="matrix(0.9598055,0,0,0.9598055,0.942289,0.3710842)" id="3" fill="#2e3436"/>
 <path d="m 43.826282,18.811222 c -0.138957,0.02133 -0.271678,0.07237 -0.389111,0.149659 L 3.3886199,42.906201 c -0.3583374,0.233815 -0.5356822,0.665873 -0.4190432,1.077541 0.116639,0.411665 0.500153,0.707264 0.9278813,0.718359 l 40.048551,0 c 0.536232,0.0057 0.976949,-0.421659 0.987744,-0.957814 l 0,-23.945319 c 0.0055,-0.285195 -0.11637,-0.558429 -0.329249,-0.748292 -0.212877,-0.189865 -0.495514,-0.277419 -0.778222,-0.239454 z" id="4" fill="#729fcf"/>
 <path d="m 43.875,21.59375 c -0.03547,0.0081 -0.08715,0.01702 -0.15625,0.0625 a 0.53483231,0.53483231 0 0 1 0,0.03125 L 3.65625,45.625 c -0.1546165,0.113794 -0.2392034,0.255017 -0.1875,0.4375 0.049051,0.173119 0.2477454,0.338828 0.4375,0.34375 l 40.03125,0 C 44.199941,46.40905 44.401406,46.240575 44.40625,46 l 0,-23.9375 c 0.0021,-0.108156 -0.05009,-0.249066 -0.15625,-0.34375 -0.09602,-0.08564 -0.234715,-0.131374 -0.34375,-0.125 -0.0088,5.17e-4 -0.02261,-0.0012 -0.03125,0 z" transform="translate(0,-2.2479995)" id="5" opacity="0.8" fill="none" stroke="url(#W)" stroke-linejoin="round"/>
 <path d="m 43.8125,18.8145 c -0.138958,0.02133 -0.257567,0.07897 -0.375,0.156251 L 3.375,42.908251 c -0.3583374,0.233812 -0.522889,0.650832 -0.40625,1.0625 0.083628,0.295155 0.3178082,0.542506 0.59375,0.65625 13.007324,-4.858215 27.226427,-8.397204 41.375,-11.84375 l 0,-12.968751 C 44.943,19.529307 44.806629,19.254365 44.59375,19.064501 44.380873,18.874634 44.095208,18.776535 43.8125,18.8145 z" id="6" opacity="0.6" fill="url(#X)"/>
</svg>
